<?xml version="1.0" encoding="UTF-8"?>
<svg xmlns="http://www.w3.org/2000/svg" xmlns:xlink="http://www.w3.org/1999/xlink" width="250px" height="267px" viewBox="0 0 250 266" version="1.1">
<g id="surface1">
<path style=" stroke:none;fill-rule:nonzero;fill:rgb(100%,100%,100%);fill-opacity:1;" d="M 2.257812 69.207031 L 24.824219 82.296875 L 141.101562 15.257812 L 118.292969 2.164062 Z M 2.257812 69.207031 "/>
<path style=" stroke:none;fill-rule:evenodd;fill:rgb(0%,0%,0%);fill-opacity:1;" d="M 117.25 0.371094 L 142.140625 13.464844 L 25.875 84.101562 L 1.21875 70.992188 L 117.25 0.363281 Z M 118.292969 4.574219 L 6.421875 69.207031 L 24.84375 79.890625 L 136.929688 15.265625 Z M 118.292969 4.574219 "/>
<path style=" stroke:none;fill-rule:nonzero;fill:rgb(100%,100%,100%);fill-opacity:1;" d="M 2.257812 69.207031 L 2.257812 203.261719 L 25.074219 216.355469 L 24.824219 82.296875 L 2.257812 69.199219 Z M 2.257812 69.207031 "/>
<path style=" stroke:none;fill-rule:evenodd;fill:rgb(0%,0%,0%);fill-opacity:1;" d="M 1.226562 67.394531 L 25.875 80.496094 L 27.15625 216.355469 L 1.226562 205.066406 L 0.175781 69.207031 Z M 4.347656 72.820312 L 4.347656 202.058594 L 22.976562 212.757812 L 22.746094 83.496094 Z M 4.347656 72.820312 "/>
<path style=" stroke:none;fill-rule:nonzero;fill:rgb(0%,0%,0%);fill-opacity:1;" d="M 24.824219 82.296875 L 141.101562 15.257812 L 141.101562 149.332031 L 25.066406 216.363281 L 24.835938 82.289062 Z M 24.824219 82.296875 "/>
<path style=" stroke:none;fill-rule:evenodd;fill:rgb(0%,0%,0%);fill-opacity:1;" d="M 142.140625 13.464844 L 143.183594 149.332031 L 26.117188 218.167969 L 22.746094 82.296875 L 140.050781 13.464844 Z M 26.90625 83.496094 L 27.15625 212.757812 L 139.019531 148.125 L 139.019531 18.863281 L 26.933594 83.496094 Z M 26.90625 83.496094 "/>
<path style=" stroke:none;fill-rule:nonzero;fill:rgb(100%,100%,100%);fill-opacity:1;" d="M 42.214844 92.144531 L 64.78125 105.242188 L 181.046875 38.203125 L 158.246094 25.109375 L 42.214844 92.152344 Z M 42.214844 92.144531 "/>
<path style=" stroke:none;fill-rule:evenodd;fill:rgb(0%,0%,0%);fill-opacity:1;" d="M 157.199219 23.316406 L 182.097656 36.410156 L 65.828125 107.046875 L 41.164062 93.945312 L 157.199219 23.308594 Z M 158.246094 27.519531 L 46.367188 92.152344 L 64.789062 102.835938 L 176.875 38.210938 Z M 158.246094 27.519531 "/>
<path style=" stroke:none;fill-rule:nonzero;fill:rgb(100%,100%,100%);fill-opacity:1;" d="M 42.214844 92.144531 L 42.214844 226.214844 L 65.023438 239.308594 L 64.78125 105.253906 L 42.214844 92.152344 Z M 42.214844 92.144531 "/>
<path style=" stroke:none;fill-rule:evenodd;fill:rgb(0%,0%,0%);fill-opacity:1;" d="M 41.171875 90.339844 L 65.828125 103.441406 L 67.105469 239.300781 L 41.171875 228.011719 L 40.132812 92.144531 Z M 44.304688 95.765625 L 44.304688 225.003906 L 62.921875 235.703125 L 62.699219 106.441406 L 44.296875 95.765625 Z M 44.304688 95.765625 "/>
<path style=" stroke:none;fill-rule:nonzero;fill:rgb(0%,0%,0%);fill-opacity:1;" d="M 64.78125 105.242188 L 181.046875 38.203125 L 181.046875 172.277344 L 65.023438 239.308594 Z M 64.78125 105.242188 "/>
<path style=" stroke:none;fill-rule:evenodd;fill:rgb(0%,0%,0%);fill-opacity:1;" d="M 182.085938 36.410156 L 183.136719 172.277344 L 66.0625 241.113281 L 62.699219 105.242188 L 180.007812 36.410156 Z M 66.878906 106.441406 L 67.105469 235.703125 L 178.972656 171.070312 L 178.972656 41.808594 Z M 66.878906 106.441406 "/>
<path style=" stroke:none;fill-rule:nonzero;fill:rgb(100%,100%,100%);fill-opacity:1;" d="M 64.824219 127.671875 L 107.140625 263.847656 L 131.28125 255.964844 L 87.28125 119.625 Z M 64.824219 127.671875 "/>
<path style=" stroke:none;fill-rule:evenodd;fill:rgb(0%,0%,0%);fill-opacity:1;" d="M 88.195312 117.761719 L 133.265625 255.324219 L 107.78125 265.824219 L 62.832031 128.289062 L 86.582031 117.671875 Z M 67.410156 128.960938 L 108.507812 261.214844 L 128.660156 254.628906 L 85.949219 122.316406 L 67.402344 128.960938 Z M 67.410156 128.960938 "/>
<path style=" stroke:none;fill-rule:nonzero;fill:rgb(100%,100%,100%);fill-opacity:1;" d="M 181.03125 65.71875 L 223.351562 201.890625 L 247.492188 194.007812 L 203.488281 57.675781 Z M 181.03125 65.71875 "/>
<path style=" stroke:none;fill-rule:evenodd;fill:rgb(0%,0%,0%);fill-opacity:1;" d="M 204.414062 55.804688 L 249.472656 193.378906 L 223.992188 203.871094 L 179.039062 66.332031 L 202.789062 55.714844 Z M 183.621094 67.003906 L 224.714844 199.257812 L 244.867188 192.679688 L 202.164062 60.359375 Z M 183.621094 67.003906 "/>
<path style=" stroke:none;fill-rule:nonzero;fill:rgb(100%,100%,100%);fill-opacity:1;" d="M 87.28125 119.632812 L 203.488281 57.675781 L 247.5 194.007812 L 131.292969 255.964844 L 87.289062 119.625 Z M 87.28125 119.632812 "/>
<path style=" stroke:none;fill-rule:evenodd;fill:rgb(0%,0%,0%);fill-opacity:1;" d="M 204.28125 55.75 L 249.472656 193.378906 L 132.265625 257.800781 L 85.300781 120.261719 L 202.507812 55.832031 Z M 89.804688 120.644531 L 132.5 252.957031 L 244.96875 192.996094 L 202.28125 60.683594 L 89.8125 120.644531 Z M 89.804688 120.644531 "/>
<path style=" stroke:none;fill-rule:nonzero;fill:rgb(100%,100%,100%);fill-opacity:1;" d="M 87.28125 119.632812 L 64.824219 127.671875 L 181.03125 65.71875 L 203.488281 57.675781 L 87.28125 119.625 Z M 87.28125 119.632812 "/>
<path style=" stroke:none;fill-rule:evenodd;fill:rgb(0%,0%,0%);fill-opacity:1;" d="M 205.394531 56.828125 L 88.253906 121.460938 L 65.523438 129.632812 C 64.472656 130.101562 63.242188 129.628906 62.773438 128.578125 C 62.308594 127.53125 62.78125 126.304688 63.832031 125.835938 L 180.046875 63.882812 L 202.789062 55.714844 Z M 205.394531 56.828125 "/>
<path style=" stroke:none;fill-rule:nonzero;fill:rgb(0%,0%,0%);fill-opacity:1;" d="M 153.359375 108.523438 L 145.523438 112.519531 L 137.695312 116.515625 L 131.347656 211.15625 L 146.753906 218.023438 L 158.496094 142.3125 L 219.910156 180.714844 L 224.839844 163.496094 Z M 153.359375 108.523438 "/>
<path style=" stroke:none;fill-rule:evenodd;fill:rgb(0%,0%,0%);fill-opacity:1;" d="M 152.417969 106.671875 L 226.113281 161.84375 L 221.925781 181.289062 L 160.070312 145.75 L 148.820312 218.339844 L 130.5 213.058594 L 135.613281 116.382812 Z M 139.695312 117.835938 L 133.53125 209.851562 L 145.105469 215.007812 L 156.429688 141.988281 L 218.667969 177.484375 L 222.441406 164.277344 L 153.132812 110.984375 Z M 139.695312 117.835938 "/>
</g>
</svg>
