<?xml version="1.0" encoding="UTF-8"?>
<svg xmlns="http://www.w3.org/2000/svg" xmlns:xlink="http://www.w3.org/1999/xlink" width="200px" height="200px" viewBox="0 0 200 200" version="1.1">
<g id="surface1">
<path style=" stroke:none;fill-rule:nonzero;fill:rgb(0%,0%,0%);fill-opacity:1;" d="M 160.414062 70.59375 C 158.417969 69.910156 156.40625 69.277344 154.378906 68.6875 C 154.714844 67.320312 155.023438 65.945312 155.308594 64.5625 C 159.878906 42.335938 156.890625 24.429688 146.691406 18.535156 C 136.925781 12.878906 120.910156 18.773438 104.753906 32.867188 C 103.164062 34.257812 101.609375 35.691406 100.085938 37.164062 C 99.070312 36.183594 98.027344 35.226562 96.960938 34.289062 C 80.027344 19.21875 63.054688 12.871094 52.867188 18.785156 C 43.101562 24.453125 40.199219 41.285156 44.3125 62.351562 C 44.722656 64.433594 45.1875 66.507812 45.699219 68.574219 C 43.296875 69.257812 40.976562 69.988281 38.757812 70.761719 C 18.929688 77.695312 6.25 88.566406 6.25 99.839844 C 6.25 111.488281 19.859375 123.167969 40.535156 130.25 C 42.210938 130.820312 43.90625 131.351562 45.613281 131.839844 C 45.058594 134.050781 44.566406 136.285156 44.140625 138.546875 C 40.234375 159.25 43.28125 175.683594 53.027344 181.316406 C 63.09375 187.132812 79.980469 181.15625 96.441406 166.742188 C 97.742188 165.601562 99.046875 164.398438 100.347656 163.128906 C 101.992188 164.71875 103.6875 166.265625 105.425781 167.761719 C 121.363281 181.503906 137.101562 187.054688 146.832031 181.40625 C 156.890625 175.570312 160.160156 157.914062 155.914062 136.433594 C 155.589844 134.792969 155.214844 133.117188 154.789062 131.410156 C 155.976562 131.058594 157.140625 130.695312 158.277344 130.320312 C 179.761719 123.183594 193.757812 111.644531 193.757812 99.851562 C 193.75 88.523438 180.664062 77.582031 160.414062 70.59375 Z M 110.023438 38.921875 C 123.863281 26.847656 136.800781 22.082031 142.699219 25.488281 C 148.976562 29.117188 151.417969 43.75 147.472656 62.941406 C 147.210938 64.191406 146.929688 65.4375 146.628906 66.679688 C 138.371094 64.800781 129.996094 63.476562 121.558594 62.710938 C 116.730469 55.753906 111.433594 49.128906 105.710938 42.886719 C 107.113281 41.527344 108.546875 40.207031 110.015625 38.921875 Z M 61.613281 109.472656 C 63.308594 112.753906 65.082031 115.996094 66.929688 119.195312 C 68.8125 122.460938 70.773438 125.679688 72.816406 128.847656 C 67.011719 128.214844 61.242188 127.285156 55.535156 126.0625 C 57.191406 120.703125 59.230469 115.136719 61.613281 109.472656 Z M 61.613281 90.59375 C 59.269531 85.050781 57.285156 79.597656 55.65625 74.332031 C 61.007812 73.132812 66.710938 72.152344 72.65625 71.410156 C 70.664062 74.519531 68.746094 77.675781 66.90625 80.875 C 65.066406 84.074219 63.296875 87.316406 61.601562 90.59375 Z M 65.871094 100.035156 C 68.339844 94.886719 71 89.835938 73.847656 84.886719 C 76.695312 79.9375 79.722656 75.105469 82.9375 70.382812 C 88.515625 69.960938 94.234375 69.738281 100.011719 69.738281 C 105.789062 69.738281 111.542969 69.960938 117.117188 70.386719 C 120.296875 75.097656 123.308594 79.914062 126.152344 84.839844 C 128.996094 89.765625 131.691406 94.789062 134.234375 99.917969 C 131.722656 105.085938 129.035156 110.15625 126.171875 115.128906 C 123.332031 120.078125 120.335938 124.925781 117.1875 129.675781 C 111.621094 130.066406 105.859375 130.28125 100 130.28125 C 94.140625 130.28125 88.488281 130.097656 83.023438 129.742188 C 79.785156 125.003906 76.730469 120.148438 73.859375 115.175781 C 70.988281 110.203125 68.320312 105.15625 65.859375 100.035156 Z M 133.105469 119.140625 C 134.992188 115.863281 136.804688 112.546875 138.542969 109.183594 C 140.925781 114.582031 143.027344 120.101562 144.839844 125.714844 C 139.0625 127.015625 133.222656 128.011719 127.34375 128.703125 C 129.328125 125.554688 131.25 122.367188 133.105469 119.140625 Z M 138.464844 90.597656 C 136.734375 87.304688 134.9375 84.046875 133.070312 80.832031 C 131.246094 77.660156 129.347656 74.527344 127.371094 71.433594 C 133.351562 72.191406 139.089844 73.199219 144.46875 74.429688 C 142.738281 79.917969 140.734375 85.3125 138.464844 90.597656 Z M 100.089844 48.625 C 103.992188 52.886719 107.671875 57.34375 111.125 61.976562 C 103.742188 61.625 96.355469 61.625 88.960938 61.976562 C 92.605469 57.15625 96.335938 52.683594 100.089844 48.625 Z M 56.898438 25.726562 C 63.171875 22.085938 77.042969 27.289062 91.664062 40.285156 C 92.597656 41.117188 93.539062 41.988281 94.476562 42.890625 C 88.722656 49.132812 83.390625 55.75 78.515625 62.699219 C 70.097656 63.457031 61.738281 64.761719 53.492188 66.605469 C 53.015625 64.6875 52.585938 62.757812 52.203125 60.816406 C 48.667969 42.757812 51.007812 29.144531 56.898438 25.726562 Z M 47.753906 124.105469 C 46.191406 123.660156 44.648438 123.175781 43.125 122.65625 C 33.984375 119.53125 26.433594 115.453125 21.25 111.011719 C 16.609375 107.03125 14.257812 103.058594 14.257812 99.839844 C 14.257812 93 24.4375 84.273438 41.414062 78.355469 C 43.546875 77.613281 45.699219 76.933594 47.867188 76.320312 C 50.386719 84.421875 53.441406 92.351562 57.007812 100.050781 C 53.398438 107.859375 50.308594 115.894531 47.753906 124.105469 Z M 91.164062 160.695312 C 83.886719 167.070312 76.597656 171.589844 70.171875 173.867188 C 64.398438 175.910156 59.800781 175.96875 57.023438 174.363281 C 51.109375 170.945312 48.648438 157.746094 52.003906 140.042969 C 52.402344 137.960938 52.859375 135.875 53.371094 133.792969 C 61.703125 135.585938 70.144531 136.8125 78.640625 137.460938 C 83.566406 144.445312 88.941406 151.101562 94.734375 157.382812 C 93.570312 158.527344 92.378906 159.628906 91.164062 160.695312 Z M 100.3125 151.625 C 96.515625 147.519531 92.726562 142.976562 89.03125 138.09375 C 92.621094 138.234375 96.277344 138.304688 100 138.304688 C 103.820312 138.304688 107.601562 138.222656 111.328125 138.054688 C 107.890625 142.761719 104.210938 147.292969 100.3125 151.625 Z M 148.953125 162.792969 C 147.835938 168.824219 145.589844 172.847656 142.8125 174.457031 C 136.902344 177.886719 124.265625 173.429688 110.640625 161.675781 C 109.078125 160.332031 107.515625 158.890625 105.925781 157.378906 C 111.605469 151.070312 116.855469 144.390625 121.640625 137.378906 C 130.183594 136.65625 138.667969 135.34375 147.03125 133.453125 C 147.414062 135 147.753906 136.515625 148.046875 138 C 149.925781 147.492188 150.195312 156.078125 148.953125 162.792969 Z M 155.75 122.699219 C 154.726562 123.039062 153.671875 123.367188 152.601562 123.6875 C 149.980469 115.546875 146.804688 107.59375 143.105469 99.882812 C 146.667969 92.273438 149.714844 84.4375 152.230469 76.421875 C 154.148438 76.980469 156.011719 77.566406 157.804688 78.1875 C 175.15625 84.171875 185.742188 93.03125 185.742188 99.839844 C 185.742188 107.105469 174.308594 116.535156 155.75 122.699219 Z M 155.75 122.699219 "/>
<path style=" stroke:none;fill-rule:nonzero;fill:rgb(0%,0%,0%);fill-opacity:1;" d="M 100 116.621094 C 106.796875 116.644531 112.941406 112.566406 115.558594 106.289062 C 118.175781 100.015625 116.75 92.78125 111.953125 87.964844 C 107.152344 83.152344 99.921875 81.703125 93.640625 84.300781 C 87.355469 86.898438 83.257812 93.027344 83.257812 99.824219 C 83.238281 109.085938 90.738281 116.609375 100 116.621094 Z M 100 116.621094 "/>
</g>
</svg>
